<svg width="680" height="500"><g transform="translate(100, 10)"><text class="x-axis-label" x="285" y="480" font-size="20px" text-anchor="middle">Buildings</text><text class="x-axis-label" x="-195" y="-60" font-size="20px" text-anchor="middle" transform="rotate(-90)">Height in meters</text><g class="x-axis" transform="translate(0, 390)" fill="none" font-size="10" font-family="sans-serif" text-anchor="middle"><path class="domain" stroke="#000" d="M0.5,6V0.5H570.5V6"></path><g class="tick" opacity="1" transform="translate(47.499999999999986,0)"><line stroke="#000" y2="6"></line><text fill="#000" y="10" dy="0.71em" x="-5" text-anchor="end" transform="rotate(-40)">Burj Khalifa</text></g><g class="tick" opacity="1" transform="translate(126.66666666666666,0)"><line stroke="#000" y2="6"></line><text fill="#000" y="10" dy="0.71em" x="-5" text-anchor="end" transform="rotate(-40)">Shangai Tower</text></g><g class="tick" opacity="1" transform="translate(205.83333333333331,0)"><line stroke="#000" y2="6"></line><text fill="#000" y="10" dy="0.71em" x="-5" text-anchor="end" transform="rotate(-40)">Abraj Al-Beit Clock Tower</text></g><g class="tick" opacity="1" transform="translate(285,0)"><line stroke="#000" y2="6"></line><text fill="#000" y="10" dy="0.71em" x="-5" text-anchor="end" transform="rotate(-40)">Ping An Finance Center</text></g><g class="tick" opacity="1" transform="translate(364.1666666666667,0)"><line stroke="#000" y2="6"></line><text fill="#000" y="10" dy="0.71em" x="-5" text-anchor="end" transform="rotate(-40)">Middle Tower</text></g><g class="tick" opacity="1" transform="translate(443.33333333333337,0)"><line stroke="#000" y2="6"></line><text fill="#000" y="10" dy="0.71em" x="-5" text-anchor="end" transform="rotate(-40)">One World Trade Center</text></g><g class="tick" opacity="1" transform="translate(522.5,0)"><line stroke="#000" y2="6"></line><text fill="#000" y="10" dy="0.71em" x="-5" text-anchor="end" transform="rotate(-40)">Rdn Tower</text></g></g><g class="y-axis" fill="none" font-size="10" font-family="sans-serif" text-anchor="end"><path class="domain" stroke="#000" d="M-6,390.5H0.5V0.5H-6"></path><g class="tick" opacity="1" transform="translate(0,390.5)"><line stroke="#000" x2="-6"></line><text fill="#000" x="-9" dy="0.32em">0m</text></g><g class="tick" opacity="1" transform="translate(0,343.3985507246377)"><line stroke="#000" x2="-6"></line><text fill="#000" x="-9" dy="0.32em">100m</text></g><g class="tick" opacity="1" transform="translate(0,296.2971014492754)"><line stroke="#000" x2="-6"></line><text fill="#000" x="-9" dy="0.32em">200m</text></g><g class="tick" opacity="1" transform="translate(0,249.19565217391303)"><line stroke="#000" x2="-6"></line><text fill="#000" x="-9" dy="0.32em">300m</text></g><g class="tick" opacity="1" transform="translate(0,202.09420289855072)"><line stroke="#000" x2="-6"></line><text fill="#000" x="-9" dy="0.32em">400m</text></g><g class="tick" opacity="1" transform="translate(0,154.9927536231884)"><line stroke="#000" x2="-6"></line><text fill="#000" x="-9" dy="0.32em">500m</text></g><g class="tick" opacity="1" transform="translate(0,107.89130434782606)"><line stroke="#000" x2="-6"></line><text fill="#000" x="-9" dy="0.32em">600m</text></g><g class="tick" opacity="1" transform="translate(0,60.78985507246375)"><line stroke="#000" x2="-6"></line><text fill="#000" x="-9" dy="0.32em">700m</text></g><g class="tick" opacity="1" transform="translate(0,13.688405797101439)"><line stroke="#000" x2="-6"></line><text fill="#000" x="-9" dy="0.32em">800m</text></g></g><rect x="15.833333333333314" y="0" height="390" width="63.33333333333334" fill="green"></rect><rect x="94.99999999999999" y="96.55797101449275" height="293.44202898550725" width="63.33333333333334" fill="green"></rect><rect x="174.16666666666666" y="106.92028985507244" height="283.07971014492756" width="63.33333333333334" fill="green"></rect><rect x="253.33333333333331" y="114.45652173913044" height="275.54347826086956" width="63.33333333333334" fill="green"></rect><rect x="332.5" y="120.57971014492756" height="269.42028985507244" width="63.33333333333334" fill="green"></rect><rect x="411.6666666666667" y="134.94565217391303" height="255.05434782608697" width="63.33333333333334" fill="green"></rect><rect x="490.8333333333333" y="154.4927536231884" height="235.5072463768116" width="63.33333333333334" fill="green"></rect></g></svg>